<svg width="318" height="734" viewBox="0 0 318 734" fill="none" xmlns="http://www.w3.org/2000/svg">
<path d="M318 276.868C318 303.426 314.863 328.823 308.59 353.057C302.316 376.959 293.988 399.534 283.604 420.78C273.437 441.695 261.755 461.115 248.559 479.042C235.58 496.637 222.384 512.572 208.971 526.847H311.51L303.722 734L0 718.065V536.806C11.4653 530.83 23.4714 523.693 36.0184 515.393C48.7816 506.762 61.2204 496.969 73.3347 486.014C85.6653 475.058 97.2388 462.775 108.055 449.164C119.088 435.553 128.714 420.78 136.935 404.845C145.371 388.578 151.969 370.984 156.729 352.061C161.704 333.138 164.192 312.722 164.192 290.811C164.192 278.196 162.678 267.075 159.649 257.448C156.837 247.82 152.835 239.853 147.643 233.545C142.451 226.906 136.394 222.092 129.471 219.104C122.765 215.785 115.518 214.125 107.731 214.125C101.241 214.125 94.6429 215.287 87.9367 217.611C81.2306 219.602 74.6327 222.59 68.1429 226.574C61.6531 230.558 55.4878 235.537 49.6469 241.513C44.0224 247.156 38.9388 253.63 34.3959 260.934L5.84082 65.7313C13.8449 53.4482 23.0388 43.1569 33.4225 34.8575C43.8061 26.5581 54.7306 19.9186 66.1959 14.9389C77.6612 9.62732 89.3429 5.80959 101.241 3.48575C113.139 1.16192 124.82 0 136.286 0C161.812 0 185.608 7.13749 207.673 21.4125C229.739 35.3555 248.884 54.7761 265.108 79.6744C281.549 104.241 294.42 133.455 303.722 167.316C313.241 201.178 318 237.695 318 276.868Z" fill="#9E35C1"/>
</svg>
