<svg width="306" height="685" viewBox="0 0 306 685" fill="none" xmlns="http://www.w3.org/2000/svg">
<path d="M306 454.001C306 493.39 301.733 527.595 293.2 556.618C284.866 585.345 273.158 609.333 258.076 628.583C242.994 647.537 224.936 661.752 203.901 671.229C183.064 680.41 160.144 685 135.14 685C123.829 685 112.22 683.371 100.313 680.113C88.4066 676.856 76.5992 672.414 64.8911 666.787C53.1829 661.16 41.7724 654.496 30.6595 646.796C19.7451 639.096 9.52529 630.804 0 621.92L11.3113 443.34C18.8521 451.04 27.286 458.444 36.6128 465.551C45.9397 472.363 55.5642 478.582 65.4864 484.209C75.607 489.54 85.7276 493.834 95.8483 497.091C106.167 500.349 116.089 501.978 125.615 501.978C131.171 501.978 136.827 501.386 142.582 500.201C148.535 498.72 153.893 496.203 158.656 492.649C163.418 489.095 167.288 484.061 170.265 477.545C173.44 471.03 175.027 462.59 175.027 452.224C175.027 445.709 173.043 439.638 169.074 434.011C165.105 428.384 160.342 423.646 154.786 419.796C149.23 415.65 143.475 412.54 137.521 410.467C131.568 408.098 126.607 406.913 122.638 406.913C119.86 406.913 116.486 407.209 112.518 407.802C108.747 408.098 104.877 408.69 100.909 409.578C96.9397 410.467 93.07 411.8 89.2996 413.577C85.7276 415.057 82.9494 416.982 80.965 419.351L82.751 292.302C86.1245 292.895 89.2996 293.339 92.2763 293.635C95.2529 293.931 98.428 294.079 101.802 294.079C108.747 294.079 116.288 293.191 124.424 291.414C132.56 289.341 140.101 285.935 147.047 281.197C153.992 276.162 159.747 269.35 164.311 260.762C169.074 252.174 171.455 241.068 171.455 227.445C171.455 217.672 169.669 209.824 166.097 203.901C162.525 197.682 158.06 192.943 152.702 189.685C147.543 186.428 141.887 184.207 135.735 183.022C129.584 181.837 124.027 181.245 119.066 181.245C102.992 181.245 87.1167 185.391 71.4397 193.684C55.9611 201.976 42.2685 214.118 30.3619 230.11L5.35798 68.4112C23.6148 46.1997 44.3521 29.3191 67.57 17.7691C90.9864 5.92304 114.502 0 138.117 0C159.747 0 180.385 4.73843 200.031 14.2153C219.875 23.396 237.339 37.1671 252.42 55.5285C267.502 73.5938 279.508 95.9533 288.438 122.607C297.368 149.261 301.833 180.061 301.833 215.006C301.833 225.076 300.84 235.293 298.856 245.658C296.872 256.024 294.193 266.093 290.819 275.866C287.446 285.639 283.477 294.819 278.912 303.408C274.348 311.7 269.486 318.956 264.327 325.175C272.661 330.802 279.508 338.354 284.866 347.831C290.224 357.308 294.49 367.821 297.665 379.371C300.84 390.921 303.023 403.211 304.214 416.242C305.405 428.976 306 441.563 306 454.001Z" fill="#35B1B5"/>
</svg>
